<?xml version="1.0" standalone="no"?>
<!DOCTYPE svg PUBLIC "-//W3C//DTD SVG 20010904//EN"
 "http://www.w3.org/TR/2001/REC-SVG-20010904/DTD/svg10.dtd">
<svg version="1.0" xmlns="http://www.w3.org/2000/svg"
 width="200.000000pt" height="200.000000pt" viewBox="0 0 200.000000 200.000000"
 preserveAspectRatio="xMidYMid meet">

<g transform="translate(0.000000,200.000000) scale(0.100000,-0.100000)"
fill="#000000" stroke="none">
<path d="M245 1594 c-33 -20 -78 -47 -100 -60 -47 -27 -105 -79 -105 -93 0
-13 139 -171 151 -171 23 0 4 37 -43 87 -72 74 -76 82 -47 105 35 27 148 100
192 123 35 18 43 35 21 42 -5 2 -37 -13 -69 -33z"/>
<path d="M400 1565 c-14 -16 -5 -35 16 -35 15 0 20 35 5 44 -5 3 -14 -1 -21
-9z"/>
<path d="M1180 1545 c-6 -14 -10 -30 -10 -35 0 -4 -14 -13 -31 -19 -32 -11
-31 -31 2 -31 18 0 19 -5 13 -97 -3 -54 -8 -104 -10 -112 -5 -17 14 -41 33
-41 11 0 12 8 7 35 -3 20 -3 79 1 131 l7 96 34 -7 c19 -3 34 -2 34 3 0 14 -23
32 -42 32 -14 0 -16 6 -12 29 8 38 -13 50 -26 16z"/>
<path d="M366 1493 c-3 -3 -6 -14 -6 -24 0 -10 -14 -34 -30 -53 -30 -33 -27
-55 4 -43 8 3 16 -3 19 -14 6 -21 41 -26 53 -7 4 6 -1 17 -10 23 -14 11 -16
22 -10 63 6 46 -3 71 -20 55z"/>
<path d="M458 1463 c-19 -23 -40 -125 -27 -137 13 -14 20 -3 30 46 5 24 15 53
21 66 16 30 -2 50 -24 25z"/>
<path d="M502 1401 c-47 -43 -37 -73 12 -36 30 23 38 18 34 -22 -2 -30 1 -38
15 -41 14 -3 17 4 17 38 0 37 -23 90 -39 90 -4 0 -21 -13 -39 -29z"/>
<path d="M665 1400 c-15 -17 -16 -24 -5 -50 17 -40 7 -64 -24 -56 -28 7 -40
-2 -25 -21 16 -19 75 -17 83 3 9 23 7 67 -3 83 -7 10 -5 19 6 26 9 7 13 17 9
23 -10 17 -20 15 -41 -8z"/>
<path d="M943 1363 c-13 -31 -9 -136 5 -140 8 -3 12 6 12 25 0 24 5 31 28 36
39 8 78 44 64 58 -7 7 -20 5 -45 -11 -44 -27 -44 -27 -39 8 5 33 -15 51 -25
24z"/>
<path d="M746 1339 c-34 -39 -35 -91 -4 -113 25 -18 88 -22 88 -6 0 11 -7 14
-52 24 -19 4 -28 13 -28 26 0 16 7 20 36 20 66 0 93 30 56 63 -29 27 -67 21
-96 -14z m74 -9 c0 -5 -12 -10 -27 -10 -22 0 -25 2 -13 10 20 13 40 13 40 0z"/>
<path d="M224 1016 c-8 -22 2 -46 21 -46 19 0 20 34 0 50 -12 10 -16 9 -21 -4z"/>
<path d="M423 944 c-44 -26 -53 -47 -33 -85 8 -14 21 -19 51 -19 45 0 51 22 8
28 -40 6 -47 21 -19 42 14 11 33 20 43 20 12 0 17 6 15 17 -5 25 -19 25 -65
-3z"/>
<path d="M566 918 c-24 -33 -21 -84 6 -102 35 -25 89 -20 121 9 52 49 24 99
-60 109 -46 6 -53 4 -67 -16z m118 -33 c6 -18 -31 -55 -55 -55 -32 0 -49 12
-49 34 0 31 7 36 56 36 28 0 44 -5 48 -15z"/>
<path d="M216 923 c-3 -3 -6 -16 -6 -27 0 -12 -9 -36 -21 -55 -22 -36 -13 -65
14 -43 10 9 21 9 45 0 24 -9 35 -9 43 -1 16 16 2 33 -27 33 -22 0 -24 4 -24
44 0 43 -10 63 -24 49z"/>
<path d="M1515 921 c-6 -10 38 -42 143 -105 34 -21 62 -39 62 -41 0 -2 -31
-24 -69 -49 -84 -56 -100 -73 -77 -82 10 -4 26 1 39 13 12 10 46 34 74 53 91
60 85 75 -52 158 -112 67 -111 66 -120 53z"/>
<path d="M1107 913 c-17 -16 -4 -51 30 -80 l38 -32 -22 -22 c-21 -21 -25 -22
-59 -10 -55 20 -67 -2 -16 -28 23 -12 47 -21 55 -21 21 0 67 54 67 79 0 21
-43 71 -61 71 -5 0 -9 5 -9 11 0 7 11 8 30 4 31 -7 39 2 18 23 -13 13 -60 16
-71 5z"/>
<path d="M765 897 c-12 -30 -10 -130 3 -134 7 -3 12 5 12 20 0 19 9 29 36 42
52 24 67 15 59 -39 -5 -29 -3 -46 5 -51 16 -10 18 -6 25 50 6 42 4 55 -13 75
-19 24 -20 24 -61 8 l-41 -16 0 23 c0 28 -18 43 -25 22z"/>
<path d="M1218 895 c-3 -3 3 -22 13 -42 10 -19 21 -55 25 -79 6 -39 27 -74 39
-62 13 13 63 123 59 130 -10 16 -25 7 -41 -27 -19 -40 -28 -38 -37 8 -9 50
-41 89 -58 72z"/>
<path d="M1417 830 c-29 -34 -41 -67 -35 -97 4 -22 52 -30 74 -12 12 10 14 5
13 -27 0 -47 -14 -132 -22 -140 -9 -9 -45 6 -76 32 -34 29 -54 15 -25 -18 43
-46 115 -63 133 -30 15 27 24 154 16 217 -4 35 -15 65 -29 82 l-22 26 -27 -33z
m14 -83 c-18 -18 -23 -1 -9 29 13 28 13 28 16 5 2 -13 -1 -28 -7 -34z"/>
<path d="M943 744 c-8 -21 13 -42 28 -27 13 13 5 43 -11 43 -6 0 -13 -7 -17
-16z"/>
</g>
</svg>
